<svg version="1.1" id="Layer_1" xmlns="http://www.w3.org/2000/svg" x="0" y="0" viewBox="0 0 120 120" style="enable-background:new 0 0 120 120" xml:space="preserve"><style>.st0{fill:none;stroke:#000;stroke-width:1.25;stroke-linecap:round;stroke-linejoin:round;stroke-miterlimit:10}</style><path class="st0" d="M59.04 57.31h-.18l-40.3 15.71h23.59l16.89-15.71z"/><path class="st0" d="M59.47 57.05c-.98-.06-.19-.16-.18.34 0 .09-.22-.02-.25-.08L42.15 73.02c.81 12.66 24.07 20.14 32.21 9.95 9.65-12.08-16.77-15.39-22.74-16.94-16.03-4.17-33.58-10.54-29.96-30.93 3.07-17.33 19.92-24.92 35.95-25.17 19.98-.31 37.82 7.92 39.72 29.62l-37.86 17.5h0z"/><path class="st0" d="M59.29 57.05h.18l37.86-17.5H74.07l-14.78 17.5z"/><path class="st0" d="M59.49 57.33c-.03-.02-.53-.37-.36-.37.11 0 .1.07.16.09l14.78-17.5c4.24-20.74-30.01-17.02-29.62-3.67.3 10.45 25.59 11.07 32.63 13.34 16 5.17 32.37 21 25.19 38.52-6.6 16.1-28.72 20.8-44.28 20.3-19.06-.61-39.53-13.35-39.42-35.02l31.54-7.39c.18.31 9.17-8 9.38-8.3h0z"/><path class="st0" d="M99.77 75.31c.74-21.69-21.71-25.82-38-29.79-7.57-1.85-27.62-8.85-11.38-16.78 8.8-4.3 23.02.13 23.67 10.81h23.27c-3.07-35.1-66.26-43.18-74.36-9.37-19 79.37 54.16 77.81 53.1 49.83-.54-14.11-24.83 20.4-33.92-6.99H18.56c-.17 33.43 51.51 41.26 72.28 22.27 5.66-5.18 8.8-12.32 8.93-19.98h0z"/><path class="st0" d="m59.47 57.05 14.6-17.5c-.33-.11 23.1-.15 23.27 0 .05.04-29.67 7.62-29.64 7.64l-8.21 10.13"/></svg>