<?xml version="1.0" encoding="utf-8"?>
<!-- Generator: Adobe Illustrator 28.3.0, SVG Export Plug-In . SVG Version: 6.00 Build 0)  -->
<svg version="1.1" id="Layer_1" xmlns="http://www.w3.org/2000/svg" xmlns:xlink="http://www.w3.org/1999/xlink" x="0px" y="0px"
	 viewBox="0 0 400 400" style="enable-background:new 0 0 400 400;" xml:space="preserve">
<style type="text/css">
	.st0{fill:none;stroke:#000000;stroke-width:1.25;stroke-linecap:round;stroke-linejoin:round;stroke-miterlimit:10;}
	.st1{fill:none;}
</style>
<g>
	<g>
		<path class="st0" d="M1387.62,197.62H1387l-68.23,26.6c-14.66,5.71-10.56,27.46,5.16,27.46l0,0c3.58,0,7.05-1.38,9.67-3.82
			L1387.62,197.62z"/>
		<path class="st0" d="M1389.1,196.72h-0.62c0,0.14,0.24,0.21-0.86,0.89l-52.37,48.72c-4.06,3.78-5.61,9.6-3.85,14.83
			c12.66,37.57,83.02,57.15,108.93,24.74c33.2-41.56-57.7-52.95-78.24-58.28c-55.15-14.35-44.9-312.92-97.58-99.71
			s63.03-92.45,118.18-93.31c65.37-1,124.1,24.57,135.32,91.28c1.03,6.23-2.37,12.35-8.09,15L1389.1,196.72L1389.1,196.72z"/>
		<path class="st0" d="M1534.98,78.37c99.57,126.65-83.78,148.46-141.89,116.53c-134.08-73.7,126.27-58.39,126.27-58.39h-62.96
			c-9.05,0-15.76-8.33-13.9-17.17C1452.38,72.76,1451.03-28.43,1534.98,78.37z"/>
		<path class="st0" d="M1388.48,196.9C1388.38,196.83,1388.48,197.48,1388.48,196.9c0-0.14,0-0.14,0-0.14l48.34-57.25
			c1.75-2.1,2.89-4.68,3.27-7.4c8.88-66.37-103.98-53.16-102.67-8.19c1.03,35.95,88.05,38.09,112.27,45.9
			c55.05,17.79,123.45,76.93,98.75,137.21c-22.71,55.39-106.42,79.31-159.95,77.59c-60.62-1.93-129.19-50.13-138.93-116.33
			c-1.27-8.6,5.51-16.31,14.21-16.21c32.03,0.31,97.16-1.75,25.05-27.39c-92.38-32.86,98.95-26.87,99.67-27.9V196.9L1388.48,196.9z"
			/>
		<path class="st0" d="M1527.76,259.55c2.55-74.63-74.7-88.84-130.74-102.5c-26.05-6.37-95.03-30.45-39.15-57.73
			c27.42-13.42,70.19-2.17,79.62,27.42c1.86,5.85,7.33,9.77,13.49,9.77h53.88c8.36,0,14.86-7.16,14.18-15.48
			c-11.46-137.76-245.42-138.45-274.32-16.38c-58.42,258.77,193.88,267.06,201.38,177.16c0.31-3.78-1.07-7.53-3.58-10.43
			c-67.78-77.17-69.36-8.12-111.1-19.2c-1.24-0.34-2.55-0.55-3.82-0.55h-63.96c-8.7,0-15.38,7.74-14.07,16.34
			c15.48,101.12,291.45,106.73,262.24,71.36C1482.58,304,1527.31,285.9,1527.76,259.55L1527.76,259.55z"/>
		<path class="st0" d="M1446.73,94.09c0,0-44.11,0.45,16.58,21.23c60.69,20.78-15.28,20.99-6.16,20.95
			c23.46-0.14,61.86-0.07,62.24,0.28c0.17,0.14-83.19,21.4-99.3,25.56c-1.89,0.48-3.61,1.34-5.13,2.55
			c-11.01,8.67-52.23,46.83,18.89,84.88"/>
	</g>
	<g>
		<polygon class="st0" points="992.84,197.61 992.22,197.61 853.56,251.67 934.73,251.67 		"/>
		<path class="st0" d="M994.32,196.72h-0.62c0,0.14,0.24,0.21-0.86,0.89l-58.11,54.05c2.79,43.56,82.82,69.29,110.82,34.23
			c33.2-41.56-57.7-52.95-78.24-58.28c-55.15-14.35-115.54-36.26-103.08-106.42c10.56-59.63,68.54-85.74,123.69-86.6
			c68.74-1.07,130.12,27.25,136.66,101.91L994.32,196.72L994.32,196.72z"/>
		<polygon class="st0" points="993.7,196.72 994.32,196.72 1124.58,136.51 1044.55,136.51 		"/>
		<path class="st0" d="M993.7,196.89C993.6,196.82,993.7,197.48,993.7,196.89c0-0.14,0-0.14,0-0.14l50.85-60.21
			c14.59-71.36-103.25-58.56-101.91-12.63c1.03,35.95,88.05,38.09,112.27,45.9c55.05,17.79,123.45,76.93,98.75,137.21
			c-22.71,55.39-106.42,79.31-159.95,77.59c-65.58-2.1-140.48-58.32-140.1-132.88l108.52-25.43c0.62,1.07,30.86-28.49,31.58-29.52
			L993.7,196.89L993.7,196.89z"/>
		<path class="st0" d="M1132.97,259.55c2.55-74.63-74.7-88.84-130.74-102.5c-26.05-6.37-95.03-30.45-39.15-57.73
			c30.28-14.79,79.2,0.45,81.44,37.19h80.06c5.37-153.04-244.73-158.34-274.66-31.83c-59.69,264.48,205.16,267.3,201.52,171.03
			c-72.49-85.22-85.43,70.19-116.71-24.05h-81.16c-0.58,115.02,177.23,141.96,248.69,76.62
			C1121.72,310.47,1132.53,285.9,1132.97,259.55L1132.97,259.55z"/>
		<path class="st0" d="M1080.16,61.16l-35.58,75.35c-1.14-0.38,79.48-0.52,80.06,0c0.17,0.14-102.08,26.22-101.98,26.29
			l-129.16,34.82"/>
	</g>
	<g>
		<polygon class="st0" points="592.28,196.44 591.66,196.44 453,250.49 534.17,250.49 		"/>
		<path class="st0" d="M593.76,195.55c-3.37-0.21-0.65-0.55-0.62,1.17c0,0.31-0.76-0.07-0.86-0.28l-58.11,54.05
			c2.79,43.56,82.82,69.29,110.82,34.23c33.2-41.56-57.7-52.95-78.24-58.28c-55.15-14.35-115.54-36.26-103.08-106.42
			c10.56-59.63,68.54-85.74,123.69-86.6c68.74-1.07,130.12,27.25,136.66,101.91L593.76,195.55L593.76,195.55z"/>
		<polygon class="st0" points="593.14,195.55 593.76,195.55 724.02,135.34 643.99,135.34 		"/>
		<path class="st0" d="M593.83,196.51c-0.1-0.07-1.82-1.27-1.24-1.27c0.38,0,0.34,0.24,0.55,0.31l50.85-60.21
			c14.59-71.36-103.25-58.56-101.91-12.63c1.03,35.95,88.05,38.09,112.27,45.9c55.05,17.79,111.37,72.25,86.67,132.53
			c-22.71,55.39-98.81,71.56-152.35,69.84c-65.58-2.1-136.01-45.93-135.63-120.49l108.52-25.43
			C562.17,226.13,593.11,197.54,593.83,196.51L593.83,196.51z"/>
		<path class="st0" d="M732.42,258.37c2.55-74.63-74.7-88.84-130.74-102.5c-26.05-6.37-95.03-30.45-39.15-57.73
			c30.28-14.79,79.2,0.45,81.44,37.19h80.06C713.46,14.57,496.05-13.23,468.18,103.1c-65.37,273.08,186.34,267.71,182.7,171.45
			c-1.86-48.55-85.43,70.19-116.71-24.05H453c-0.58,115.02,177.23,141.96,248.69,76.62C721.16,309.29,731.97,284.73,732.42,258.37
			L732.42,258.37z"/>
		<path class="st0" d="M593.76,195.55l50.23-60.21c-1.14-0.38,79.48-0.52,80.06,0c0.17,0.14-102.08,26.22-101.98,26.29l-28.25,34.85
			"/>
	</g>
	<g>
		<line class="st0" x1="52.96" y1="248.8" x2="134.12" y2="248.52"/>
		<path class="st0" d="M134.12,248.52c2.92,43.56,83.02,69.02,110.93,33.89c33.06-41.67-57.87-52.78-78.41-58.04
			C111.45,210.19,51,188.48,63.21,118.26C73.6,58.6,131.47,32.32,186.63,31.28c68.74-1.27,130.19,26.84,136.97,101.5"/>
		<line class="st0" x1="323.63" y1="132.78" x2="243.6" y2="133.02"/>
		<path class="st0" d="M243.6,133.02c14.35-71.39-103.42-58.25-101.95-12.32c1.14,35.95,88.15,37.81,112.4,45.55
			c55.12,17.62,111.61,71.91,87.08,132.26c-22.54,55.46-98.57,71.87-152.14,70.33c-65.58-1.89-136.14-45.52-136.01-120.08
			l108.45-25.77"/>
		<path class="st0" d="M243.57,133.02l80.06-0.24C323.25,11.88,113.17-4.57,67.69,101.33"/>
		<path class="st0" d="M158.52,223.72l-24.36,24.81l-81.16,0.24c-0.24,115.02,177.67,141.41,248.93,75.83
			c19.4-17.89,30.14-42.49,30.52-68.85l0,0"/>
		<path class="st0" d="M216.77,159.41l26.84-26.36c-1.14-0.38,79.48-0.76,80.06-0.24c0.17,0.14-102.01,26.53-101.91,26.6"/>
	</g>
	<g>
		<rect y="0" class="st1" width="1600" height="400"/>
	</g>
</g>
</svg>
